<?xml version="1.0" standalone="no"?><!DOCTYPE svg PUBLIC "-//W3C//DTD SVG 1.1//EN" "http://www.w3.org/Graphics/SVG/1.1/DTD/svg11.dtd"><svg t="1679967096873" class="icon" viewBox="0 0 1024 1024" version="1.1" xmlns="http://www.w3.org/2000/svg" p-id="7144" xmlns:xlink="http://www.w3.org/1999/xlink" width="200" height="200"><path d="M512.172235 209.18629a291.358405 291.358405 0 0 0-206.241987 84.561775 285.427988 285.427988 0 0 0-85.415072 204.194073c0 77.095422 30.292059 149.583038 85.415072 204.151409a291.358405 291.358405 0 0 0 206.241987 84.51911 291.358405 291.358405 0 0 0 206.199323-84.51911 285.342658 285.342658 0 0 0 85.457737-204.151409 285.427988 285.427988 0 0 0-85.457737-204.194073 291.358405 291.358405 0 0 0-206.199323-84.561775z m0 516.500931c-126.885327 0-230.134315-102.139702-230.134315-227.745083 0-125.648046 103.248988-227.830412 230.134315-227.830412s230.134315 102.182366 230.134316 227.830412c0 125.605381-103.248988 227.745082-230.134316 227.745083z m3.41319-591.079126c16.980619 0 30.761372-13.652759 30.761372-30.462718V30.50581a30.590713 30.590713 0 0 0-30.718707-30.462718 30.590713 30.590713 0 0 0-30.804037 30.462718V104.102712c0 16.852624 13.780753 30.462718 30.761372 30.462718zM257.121635 237.814419c7.850336 0 15.743337-2.986541 21.759085-8.959623a30.164064 30.164064 0 0 0 0-43.048855L226.189604 133.712133a31.017361 31.017361 0 0 0-43.518169 0 30.249394 30.249394 0 0 0 0 43.09152l52.648451 52.051143c6.015747 5.973082 13.866083 8.959623 21.759085 8.959623z m-109.094075 192.930547H73.662689a30.590713 30.590713 0 0 0-30.761372 30.462718c0 16.852624 13.738089 30.462718 30.718707 30.462718h74.492866c16.980619 0 30.718707-13.652759 30.718707-30.462718a30.633378 30.633378 0 0 0-30.718707-30.462718z m802.696886 6.82638h-74.4502a30.633378 30.633378 0 0 0-30.761372 30.420053c0 16.852624 13.780753 30.462718 30.718707 30.462718h74.492865c16.980619 0 30.718707-13.610094 30.718708-30.462718a30.590713 30.590713 0 0 0-30.718708-30.420053z m-178.68048-194.978462c7.893001 0 15.786002-2.986541 21.759084-8.916958l52.648451-52.093808a30.249394 30.249394 0 0 0 0-43.091519 31.017361 31.017361 0 0 0-43.518169 0l-52.648451 52.093807a30.292059 30.292059 0 0 0 0 43.09152c5.973082 5.930417 13.866083 8.959623 21.759085 8.959623z m-146.340508 604.731884H398.641013a30.633378 30.633378 0 0 0-30.804037 30.462718c0 16.852624 13.780753 30.462718 30.804037 30.462718h227.062445c16.980619 0 30.761372-13.652759 30.761372-30.462718a30.633378 30.633378 0 0 0-30.761372-30.462718z m-41.128936 115.749796H439.727284a30.590713 30.590713 0 0 0-30.761372 30.462718c0 16.767294 13.780753 30.462718 30.718707 30.462718h144.889903c17.023284 0 30.804037-13.652759 30.804037-30.462718a30.590713 30.590713 0 0 0-30.804037-30.462718z" fill="#666" p-id="7145"></path></svg>